<?xml version="1.0" encoding="utf-8"?>
<svg xmlns="http://www.w3.org/2000/svg" fill="none" height="100%" overflow="visible" preserveAspectRatio="none" style="display: block;" viewBox="0 0 208 23" width="100%">
<g id="UI elements">
<path d="M51.7819 11.0973C51.7819 4.96843 56.7503 1.15472e-05 62.8792 1.15472e-05H134.747C140.876 1.15472e-05 145.844 4.96843 145.844 11.0973C145.844 17.2261 140.876 22.1945 134.747 22.1945H62.8792C56.7503 22.1945 51.7819 17.2261 51.7819 11.0973Z" fill="var(--fill-0, black)" id="Mockup elements 08"/>
<g id="Mockup elements 07">
<path d="M3.29808 7.37536C3.6668 7.37536 4.0203 7.44471 4.35857 7.5834C4.70023 7.71871 5.00637 7.93521 5.277 8.23289C5.54762 8.52719 5.76073 8.91113 5.91634 9.38472C6.07194 9.85831 6.14975 10.4317 6.14975 11.1049V11.115C6.14975 11.9404 6.03473 12.6474 5.80471 13.236C5.57468 13.8212 5.24317 14.2711 4.81017 14.5857C4.38056 14.8969 3.863 15.0525 3.25749 15.0525C2.82449 15.0525 2.43378 14.973 2.08536 14.8141C1.74032 14.6551 1.45278 14.4352 1.22275 14.1544C0.992726 13.8736 0.837119 13.5506 0.755932 13.1853L0.74071 13.1244H1.87224L1.89254 13.1751C1.9602 13.3612 2.0583 13.5218 2.18684 13.6571C2.31539 13.7925 2.4693 13.899 2.64859 13.9768C2.82787 14.0512 3.03253 14.0885 3.26256 14.0885C3.67187 14.0885 4.00508 13.9684 4.26217 13.7282C4.52264 13.4846 4.71715 13.1616 4.84569 12.759C4.97424 12.3565 5.04697 11.9133 5.06388 11.4296C5.06726 11.3789 5.06896 11.3298 5.06896 11.2824C5.06896 11.2351 5.06896 11.1894 5.06896 11.1454L4.84569 9.92258C4.84569 9.6249 4.77635 9.35597 4.63765 9.11579C4.50234 8.87561 4.31798 8.68449 4.08457 8.54241C3.85454 8.40034 3.59576 8.3293 3.30823 8.3293C3.02408 8.3293 2.76529 8.39864 2.53188 8.53734C2.30186 8.67603 2.11749 8.86377 1.9788 9.10057C1.84011 9.33398 1.77076 9.59783 1.77076 9.89213V9.90228C1.77076 10.2 1.83673 10.4655 1.96865 10.6989C2.10058 10.9323 2.28156 11.1167 2.51159 11.252C2.74161 11.3839 3.00209 11.4499 3.293 11.4499C3.58731 11.4499 3.85116 11.3839 4.08457 11.252C4.31798 11.1201 4.50234 10.9408 4.63765 10.7141C4.77635 10.4841 4.84569 10.222 4.84569 9.92765V9.92258H5.14507V11.2571H4.96747C4.87952 11.4533 4.74759 11.6359 4.57169 11.8051C4.39579 11.9742 4.17929 12.1112 3.9222 12.2161C3.66849 12.3176 3.37588 12.3683 3.04437 12.3683C2.58093 12.3683 2.16824 12.2635 1.80628 12.0537C1.44432 11.8406 1.16017 11.5514 0.953824 11.186C0.747476 10.8173 0.644301 10.3995 0.644301 9.93273V9.92258C0.644301 9.43208 0.757624 8.9957 0.984269 8.61345C1.2143 8.22781 1.52889 7.92506 1.92806 7.70518C2.33061 7.4853 2.78728 7.37536 3.29808 7.37536Z" fill="var(--fill-0, white)"/>
<path d="M8.1999 13.8703C7.99017 13.8703 7.81258 13.7975 7.66712 13.6521C7.52504 13.5066 7.45401 13.3324 7.45401 13.1294C7.45401 12.9197 7.52504 12.7438 7.66712 12.6017C7.81258 12.4597 7.99017 12.3886 8.1999 12.3886C8.41302 12.3886 8.59061 12.4597 8.73269 12.6017C8.87477 12.7438 8.9458 12.9197 8.9458 13.1294C8.9458 13.3324 8.87477 13.5066 8.73269 13.6521C8.59061 13.7975 8.41302 13.8703 8.1999 13.8703ZM8.1999 10.0342C7.99017 10.0342 7.81258 9.96148 7.66712 9.81602C7.52504 9.67056 7.45401 9.49635 7.45401 9.29339C7.45401 9.08365 7.52504 8.90775 7.66712 8.76567C7.81258 8.6236 7.99017 8.55256 8.1999 8.55256C8.41302 8.55256 8.59061 8.6236 8.73269 8.76567C8.87477 8.90775 8.9458 9.08365 8.9458 9.29339C8.9458 9.49635 8.87477 9.67056 8.73269 9.81602C8.59061 9.96148 8.41302 10.0342 8.1999 10.0342Z" fill="var(--fill-0, white)"/>
<path d="M13.7817 14.8749V13.4237H10.2095V12.4546C10.4023 12.1231 10.5985 11.7899 10.7981 11.455C11.001 11.1201 11.204 10.7852 11.407 10.4503C11.6133 10.1154 11.8197 9.78558 12.026 9.46083C12.2324 9.1327 12.4387 8.80965 12.6451 8.49167C12.8514 8.17031 13.0544 7.8574 13.254 7.55295H14.8828V12.4546H15.8925V13.4237H14.8828V14.8749H13.7817ZM11.3055 12.4749H13.7969V8.51704H13.7309C13.5719 8.75383 13.4113 8.99908 13.2489 9.25279C13.0865 9.50312 12.9208 9.76021 12.7516 10.0241C12.5859 10.2879 12.4201 10.5535 12.2543 10.8207C12.0886 11.0879 11.9262 11.3552 11.7672 11.6224C11.6082 11.8863 11.4543 12.1467 11.3055 12.4038V12.4749Z" fill="var(--fill-0, white)"/>
<path d="M18.7495 14.8749V8.72508H18.6683L16.8264 10.0393V8.92297L18.7545 7.55295H19.8911V14.8749H18.7495Z" fill="var(--fill-0, white)"/>
</g>
<g id="Union">
<path d="M196.578 9.50979C197.162 9.50979 197.635 9.98284 197.635 10.5664V13.7373C197.635 14.321 197.162 14.794 196.578 14.794H194.465C193.881 14.794 193.408 14.321 193.408 13.7373V10.5664C193.408 9.98284 193.881 9.50979 194.465 9.50979H196.578Z" fill="var(--fill-0, white)"/>
<path clip-rule="evenodd" d="M204.189 8.45412C205.24 8.45432 206.092 9.30693 206.092 10.3574V13.9512L206.082 14.1455C205.991 15.0406 205.279 15.7529 204.384 15.8438L204.189 15.8535H194.255L194.061 15.8438C193.165 15.7529 192.454 15.0406 192.362 14.1455L192.353 13.9512V10.3574C192.353 9.30682 193.204 8.45415 194.255 8.45412H204.189ZM194.255 9.08889C193.554 9.08891 192.986 9.65704 192.986 10.3574V13.9512C192.987 14.6513 193.555 15.2187 194.255 15.2188H204.189C204.889 15.2186 205.458 14.6511 205.458 13.9512V10.3574C205.458 9.65715 204.89 9.08909 204.189 9.08889H194.255Z" fill="var(--fill-0, white)" fill-rule="evenodd"/>
<path d="M206.608 10.126C206.959 10.126 207.242 10.4097 207.242 10.7598V13.5166C207.242 13.8668 206.959 14.1504 206.608 14.1504H206.397V10.126H206.608Z" fill="var(--fill-0, white)"/>
</g>
<g id="Vector">
<path d="M179.668 10.569C179.96 10.569 180.197 10.8056 180.197 11.0975V15.325C180.197 15.6168 179.96 15.8534 179.668 15.8534H177.554C177.263 15.8534 177.026 15.6168 177.026 15.325V11.0975C177.026 10.8056 177.263 10.569 177.554 10.569L179.668 10.569Z" fill="var(--fill-0, white)"/>
<path d="M175.97 13.2112C176.262 13.2112 176.499 13.4478 176.499 13.7397V15.325C176.499 15.6169 176.262 15.8534 175.97 15.8534L173.856 15.8534C173.565 15.8534 173.328 15.6169 173.328 15.325L173.328 13.7397C173.328 13.4478 173.565 13.2112 173.856 13.2112H175.97Z" fill="var(--fill-0, white)"/>
<path d="M183.366 8.45446C183.658 8.45446 183.894 8.69105 183.894 8.9829L183.894 15.3242C183.894 15.616 183.658 15.8526 183.366 15.8526H181.252C180.96 15.8526 180.724 15.616 180.724 15.3242V8.9829C180.724 8.69105 180.96 8.45446 181.252 8.45446L183.366 8.45446Z" fill="var(--fill-0, white)"/>
</g>
</g>
</svg>